<svg width="14" height="16" viewBox="0 0 14 16" fill="none" xmlns="http://www.w3.org/2000/svg">
<path fill-rule="evenodd" clip-rule="evenodd" d="M4.8041 1.85299C5.50127 1.65581 6.23766 1.55005 6.99998 1.55005C7.76231 1.55005 8.49869 1.65581 9.19586 1.85299C9.59444 1.96572 10.0089 1.734 10.1217 1.33542C10.2344 0.936843 10.0027 0.522344 9.6041 0.409612C8.77541 0.175228 7.90169 0.0500488 6.99998 0.0500488C6.09827 0.0500488 5.22455 0.175228 4.39586 0.409612C3.99728 0.522344 3.76556 0.936843 3.87829 1.33542C3.99102 1.734 4.40552 1.96572 4.8041 1.85299ZM13.8 9.20005C13.8 12.9556 10.7555 16 6.99998 16C3.24445 16 0.199982 12.9556 0.199982 9.20005C0.199982 5.44451 3.24445 2.40005 6.99998 2.40005C10.7555 2.40005 13.8 5.44451 13.8 9.20005ZM7.59997 5.60002C7.59997 5.26865 7.33134 5.00002 6.99997 5.00002C6.6686 5.00002 6.39997 5.26865 6.39997 5.60002V8.56056C6.04129 8.76805 5.79997 9.15586 5.79997 9.60002C5.79997 10.2628 6.33723 10.8 6.99997 10.8C7.66271 10.8 8.19997 10.2628 8.19997 9.60002C8.19997 9.15586 7.95865 8.76805 7.59997 8.56056V5.60002Z" fill="white"/>
</svg>
